<mxfile host="Electron" agent="Mozilla/5.0 (Windows NT 10.0; Win64; x64) AppleWebKit/537.36 (KHTML, like Gecko) draw.io/26.2.2 Chrome/134.0.6998.178 Electron/35.1.2 Safari/537.36" version="26.2.2">
  <diagram id="WJFHzFOfbBbD9r7jrvOH" name="Page-1">
    <mxGraphModel dx="927" dy="1707" grid="1" gridSize="10" guides="1" tooltips="1" connect="1" arrows="1" fold="1" page="1" pageScale="1" pageWidth="850" pageHeight="1100" math="0" shadow="0">
      <root>
        <mxCell id="0" />
        <mxCell id="1" parent="0" />
        <mxCell id="iT7HdbbXOuQRF0iAZQps-5" style="edgeStyle=orthogonalEdgeStyle;rounded=0;orthogonalLoop=1;jettySize=auto;html=1;" edge="1" parent="1" source="iT7HdbbXOuQRF0iAZQps-1" target="iT7HdbbXOuQRF0iAZQps-3">
          <mxGeometry relative="1" as="geometry" />
        </mxCell>
        <mxCell id="iT7HdbbXOuQRF0iAZQps-1" value="Ansible Server" style="rounded=0;whiteSpace=wrap;html=1;fillColor=#dae8fc;strokeColor=#6c8ebf;gradientColor=#7ea6e0;" vertex="1" parent="1">
          <mxGeometry x="40" y="160" width="120" height="60" as="geometry" />
        </mxCell>
        <mxCell id="iT7HdbbXOuQRF0iAZQps-2" value="" style="rounded=1;whiteSpace=wrap;html=1;fillColor=#d5e8d4;gradientColor=#97d077;strokeColor=#82b366;" vertex="1" parent="1">
          <mxGeometry x="280" y="80" width="120" height="60" as="geometry" />
        </mxCell>
        <mxCell id="iT7HdbbXOuQRF0iAZQps-3" value="" style="rounded=1;whiteSpace=wrap;html=1;fillColor=#d5e8d4;gradientColor=#97d077;strokeColor=#82b366;" vertex="1" parent="1">
          <mxGeometry x="280" y="160" width="120" height="60" as="geometry" />
        </mxCell>
        <mxCell id="iT7HdbbXOuQRF0iAZQps-4" value="" style="rounded=1;whiteSpace=wrap;html=1;fillColor=#d5e8d4;gradientColor=#97d077;strokeColor=#82b366;" vertex="1" parent="1">
          <mxGeometry x="280" y="240" width="120" height="60" as="geometry" />
        </mxCell>
        <mxCell id="iT7HdbbXOuQRF0iAZQps-6" value="" style="endArrow=classic;html=1;rounded=0;entryX=0;entryY=0.5;entryDx=0;entryDy=0;" edge="1" parent="1" target="iT7HdbbXOuQRF0iAZQps-2">
          <mxGeometry width="50" height="50" relative="1" as="geometry">
            <mxPoint x="210" y="190" as="sourcePoint" />
            <mxPoint x="230" y="60" as="targetPoint" />
            <Array as="points">
              <mxPoint x="210" y="110" />
            </Array>
          </mxGeometry>
        </mxCell>
        <mxCell id="iT7HdbbXOuQRF0iAZQps-7" value="" style="endArrow=classic;html=1;rounded=0;entryX=-0.022;entryY=0.644;entryDx=0;entryDy=0;entryPerimeter=0;" edge="1" parent="1" target="iT7HdbbXOuQRF0iAZQps-4">
          <mxGeometry width="50" height="50" relative="1" as="geometry">
            <mxPoint x="210" y="190" as="sourcePoint" />
            <mxPoint x="280" y="270" as="targetPoint" />
            <Array as="points">
              <mxPoint x="210" y="280" />
            </Array>
          </mxGeometry>
        </mxCell>
        <mxCell id="iT7HdbbXOuQRF0iAZQps-8" value="NODE" style="text;html=1;align=center;verticalAlign=middle;resizable=0;points=[];autosize=1;strokeColor=none;fillColor=none;" vertex="1" parent="1">
          <mxGeometry x="310" y="255" width="60" height="30" as="geometry" />
        </mxCell>
        <mxCell id="iT7HdbbXOuQRF0iAZQps-9" value="NODE" style="text;html=1;align=center;verticalAlign=middle;resizable=0;points=[];autosize=1;strokeColor=none;fillColor=none;" vertex="1" parent="1">
          <mxGeometry x="310" y="175" width="60" height="30" as="geometry" />
        </mxCell>
        <mxCell id="iT7HdbbXOuQRF0iAZQps-10" value="NODE" style="text;html=1;align=center;verticalAlign=middle;resizable=0;points=[];autosize=1;strokeColor=none;fillColor=none;" vertex="1" parent="1">
          <mxGeometry x="310" y="95" width="60" height="30" as="geometry" />
        </mxCell>
        <mxCell id="iT7HdbbXOuQRF0iAZQps-11" value="" style="verticalLabelPosition=bottom;html=1;verticalAlign=top;align=center;strokeColor=none;fillColor=#00BEF2;shape=mxgraph.azure.github_code;pointerEvents=1;" vertex="1" parent="1">
          <mxGeometry x="90" y="-30" width="50" height="40" as="geometry" />
        </mxCell>
        <mxCell id="iT7HdbbXOuQRF0iAZQps-13" value="" style="endArrow=classic;html=1;rounded=0;exitX=0.5;exitY=1;exitDx=0;exitDy=0;exitPerimeter=0;" edge="1" parent="1" source="iT7HdbbXOuQRF0iAZQps-11">
          <mxGeometry width="50" height="50" relative="1" as="geometry">
            <mxPoint x="109.5" y="50" as="sourcePoint" />
            <mxPoint x="115" y="150" as="targetPoint" />
          </mxGeometry>
        </mxCell>
        <mxCell id="iT7HdbbXOuQRF0iAZQps-16" style="edgeStyle=orthogonalEdgeStyle;rounded=0;orthogonalLoop=1;jettySize=auto;html=1;" edge="1" parent="1" source="iT7HdbbXOuQRF0iAZQps-14">
          <mxGeometry relative="1" as="geometry">
            <mxPoint x="545" y="70" as="targetPoint" />
          </mxGeometry>
        </mxCell>
        <mxCell id="iT7HdbbXOuQRF0iAZQps-14" value="" style="verticalLabelPosition=bottom;html=1;verticalAlign=top;align=center;strokeColor=none;fillColor=#00BEF2;shape=mxgraph.azure.github_code;pointerEvents=1;" vertex="1" parent="1">
          <mxGeometry x="520" y="-40" width="50" height="40" as="geometry" />
        </mxCell>
        <mxCell id="iT7HdbbXOuQRF0iAZQps-15" value="NODE" style="rounded=1;whiteSpace=wrap;html=1;fillColor=#d5e8d4;gradientColor=#97d077;strokeColor=#82b366;" vertex="1" parent="1">
          <mxGeometry x="490" y="70" width="120" height="60" as="geometry" />
        </mxCell>
        <mxCell id="iT7HdbbXOuQRF0iAZQps-19" value="Install Ansible&lt;div&gt;Ansible pull directly from github&lt;/div&gt;" style="text;html=1;align=center;verticalAlign=middle;resizable=0;points=[];autosize=1;strokeColor=none;fillColor=none;fontSize=10;fontStyle=1" vertex="1" parent="1">
          <mxGeometry x="610" y="90" width="160" height="40" as="geometry" />
        </mxCell>
        <mxCell id="iT7HdbbXOuQRF0iAZQps-24" style="edgeStyle=orthogonalEdgeStyle;rounded=0;orthogonalLoop=1;jettySize=auto;html=1;exitX=0.93;exitY=0.526;exitDx=0;exitDy=0;exitPerimeter=0;" edge="1" parent="1" source="iT7HdbbXOuQRF0iAZQps-20">
          <mxGeometry relative="1" as="geometry">
            <mxPoint x="523.7" y="-12.5" as="targetPoint" />
            <mxPoint x="440.00000000000017" y="-12.529411764705856" as="sourcePoint" />
          </mxGeometry>
        </mxCell>
        <mxCell id="iT7HdbbXOuQRF0iAZQps-20" value="" style="image;sketch=0;aspect=fixed;html=1;points=[];align=center;fontSize=12;image=img/lib/mscae/Person.svg;" vertex="1" parent="1">
          <mxGeometry x="333" y="-35" width="33.3" height="45" as="geometry" />
        </mxCell>
      </root>
    </mxGraphModel>
  </diagram>
</mxfile>
